<svg width="265" height="80" viewBox="0 0 265 80" fill="none" xmlns="http://www.w3.org/2000/svg">
<path d="M74.6853 3.63922L77.7219 7.30525L48.1846 28.7961C46.0825 30.3247 43.118 29.8921 41.5599 27.8274L39.8482 25.559C37.4907 22.4365 32.9903 21.8058 29.8408 24.1595L15.1795 35.1067C14.295 35.7665 13.0792 34.9813 13.3087 33.9144C16.3157 19.8592 29.8649 10.1043 44.652 11.8346C50.1794 12.4817 55.1498 14.6573 59.1968 17.8726L68.9173 10.7877C61.6968 4.11361 51.9355 -0.0504305 40.9418 0.000461233C21.9374 0.0877043 5.36457 13.5195 1.65067 31.826C0.705072 36.488 0.612547 41.0774 1.28242 45.4813C1.54519 47.2371 1.92824 48.962 2.42046 50.6432C3.33275 53.7549 7.19654 54.9436 9.82052 52.9824L14.4985 49.4872L30.4422 37.5804C32.017 36.4044 34.269 36.7189 35.4478 38.2802L39.2227 43.2839C40.779 45.3468 43.7416 45.7812 45.8437 44.2563L100.607 4.52438L74.6853 3.63922Z" fill="url(#paint0_linear_2_524)"/>
<path d="M38.2633 44.5902L34.4883 39.5901C33.7019 38.5504 32.203 38.3396 31.1538 39.123L14.951 51.2152L10.4802 54.5486C7.38069 56.8606 6.70896 61.2209 9.06277 64.2671C9.91399 65.3704 10.8244 66.43 11.7885 67.4443C18.0727 74.0256 26.6571 78.5677 36.4757 79.7182C58.5945 82.3083 78.7406 66.7463 81.3794 45.0101C81.7106 42.2837 81.7384 39.5937 81.52 36.9674L69.2477 45.9079C66.3239 60.0668 52.7266 69.907 37.8765 68.1676C33.0949 67.6078 28.7278 65.9102 25.0213 63.3874C23.0172 62.0206 22.9062 59.1543 24.8492 57.7039L28.8943 54.685C29.9436 53.9016 31.4443 54.1106 32.2289 55.1503L35.223 59.1107C37.5601 62.2042 42.0068 62.8531 45.1582 60.5593L91.8179 26.5982L94.7435 30.904L101.305 6.07605L46.5368 45.8043C43.9091 47.7091 40.2081 47.1675 38.2633 44.5902Z" fill="url(#paint1_linear_2_524)"/>
<path d="M140.831 17.9808H135.489C135.028 17.9808 134.632 18.1062 134.305 18.357C133.975 18.6079 133.813 18.9696 133.813 19.4421C133.813 19.5766 133.837 19.7202 133.887 19.8693C133.935 20.0183 133.99 20.1601 134.049 20.2964L137.671 27.1922C137.748 27.3558 137.828 27.5612 137.906 27.8066C137.983 28.0519 138.024 28.3536 138.024 28.7099C138.024 29.2406 137.898 29.7968 137.649 30.3802C137.399 30.9637 137.053 31.5053 136.61 32.0069C136.168 32.5086 135.641 32.923 135.028 33.2502C134.416 33.5773 133.75 33.7409 133.033 33.7409H117.623L118.461 30.5747H123.553C124.103 30.5747 124.564 30.442 124.938 30.1767C125.31 29.9113 125.496 29.5187 125.496 28.9989C125.496 28.8062 125.469 28.6445 125.415 28.5154C125.361 28.3845 125.286 28.2246 125.187 28.0319L121.655 21.396C121.596 21.2797 121.542 21.1143 121.492 20.898C121.442 20.6817 121.418 20.4236 121.418 20.1237C121.418 19.4676 121.562 18.8205 121.853 18.1789C122.142 17.5373 122.545 16.9666 123.059 16.465C123.574 15.9633 124.177 15.5598 124.869 15.2508C125.561 14.9418 126.318 14.7874 127.143 14.7874H141.699L140.831 17.9808Z" fill="#D90000"/>
<path d="M169.497 23.143C169.232 24.0882 168.855 24.8715 168.364 25.4932C167.874 26.1148 167.322 26.6091 166.708 26.9745C166.096 27.3416 165.448 27.6033 164.765 27.7615C164.082 27.9196 163.427 27.9996 162.8 27.9996H152.35L150.776 33.7394H140.074L145.226 14.7859H166.877C167.26 14.7859 167.681 14.8313 168.142 14.924C168.603 15.0149 169.025 15.1748 169.408 15.402C169.791 15.6292 170.111 15.9437 170.372 16.349C170.631 16.7543 170.763 17.2687 170.763 17.8957C170.763 18.3101 170.679 18.8154 170.513 19.4134L169.497 23.143ZM159.841 19.5279C159.909 19.3262 159.954 19.1517 159.974 19.0081C159.995 18.8627 160.004 18.7282 160.004 18.6028C160.004 18.3338 159.922 18.1466 159.761 18.0466C159.599 17.9448 159.327 17.8939 158.945 17.8939H155.089L153.22 24.7316H156.871C157.391 24.7316 157.805 24.628 158.115 24.4208C158.424 24.2136 158.672 23.7774 158.858 23.1121L159.841 19.5279Z" fill="#D90000"/>
<path d="M174.149 33.7391C173.002 33.7391 172.182 33.4992 171.692 33.0157C171.202 32.534 170.956 31.8888 170.956 31.0782C170.956 30.6438 171.033 30.1294 171.191 29.5314L174.061 18.9932C174.405 17.7881 175.003 16.7867 175.856 15.9869C176.709 15.1872 177.858 14.7874 179.299 14.7874H193.739L192.9 17.9535H186.718C186.257 17.9535 185.887 18.0935 185.608 18.3734C185.328 18.6533 185.125 19.0186 184.997 19.4712L184.216 22.3048H190.574L189.706 25.5146H183.348L182.377 29.157C182.318 29.3697 182.288 29.5514 182.288 29.7059C182.288 30.2839 182.73 30.5729 183.613 30.5729H189.457L188.589 33.7391H174.149Z" fill="#D90000"/>
<path d="M196.178 33.7391C195.031 33.7391 194.211 33.4992 193.72 33.0157C193.23 32.534 192.984 31.8888 192.984 31.0782C192.984 30.6438 193.062 30.1294 193.219 29.5314L196.089 18.9932C196.433 17.7881 197.031 16.7867 197.884 15.9869C198.737 15.1872 199.886 14.7874 201.328 14.7874H215.767L214.929 17.9535H208.746C208.286 17.9535 207.916 18.0935 207.636 18.3734C207.357 18.6533 207.153 19.0186 207.025 19.4712L206.245 22.3048H212.603L211.735 25.5146H205.377L204.405 29.157C204.346 29.3697 204.316 29.5514 204.316 29.7059C204.316 30.2839 204.759 30.5729 205.641 30.5729H211.485L210.617 33.7391H196.178Z" fill="#D90000"/>
<path d="M242.812 29.5322C242.467 30.8336 241.864 31.8605 241.002 32.6112C240.139 33.3619 238.99 33.7381 237.558 33.7381H214.111L219.292 14.7845H242.754C243.833 14.7845 244.631 15.0336 245.145 15.5297C245.659 16.0259 245.919 16.6894 245.919 17.5182C245.919 18.0089 245.844 18.5015 245.698 18.9922L242.812 29.5322ZM234.79 19.3557C234.829 19.154 234.849 19.0031 234.849 18.9068C234.849 18.6087 234.764 18.3688 234.592 18.1907C234.42 18.0125 234.172 17.9235 233.848 17.9235H229.27L225.811 30.6028H230.11C230.698 30.6028 231.142 30.4937 231.442 30.2775C231.742 30.0612 231.964 29.6976 232.112 29.1851L234.79 19.3557Z" fill="#D90000"/>
<path d="M119.239 43.3165L114.955 58.9729H103.724L107.993 43.3165H102.725L103.593 40.0194H125.391L124.524 43.3165H119.239Z" fill="black"/>
<path d="M151.92 53.4076C151.694 54.2364 151.413 54.9907 151.074 55.6704C150.736 56.3502 150.314 56.9336 149.809 57.4189C149.304 57.906 148.706 58.2859 148.014 58.5604C147.322 58.8348 146.494 58.9729 145.534 58.9729H127.533C127.052 58.9729 126.582 58.9293 126.119 58.8421C125.658 58.7548 125.255 58.604 124.912 58.3859C124.57 58.1678 124.292 57.8624 124.082 57.468C123.871 57.0736 123.765 56.5574 123.765 55.9213C123.765 55.1888 123.898 54.3509 124.163 53.4058L126.297 45.6139C126.502 44.9105 126.755 44.2216 127.055 43.5473C127.355 42.873 127.749 42.275 128.24 41.7552C128.73 41.2354 129.339 40.8155 130.064 40.4974C130.789 40.1794 131.674 40.0194 132.714 40.0194H150.686C153.178 40.0194 154.424 41.0754 154.424 43.1856C154.424 43.8599 154.302 44.6706 154.056 45.6139L151.92 53.4076ZM143.384 44.3997C143.423 44.2071 143.443 44.0726 143.443 43.9944C143.443 43.4546 143.051 43.1856 142.266 43.1856H139.381C138.439 43.1856 137.845 43.5909 137.599 44.3997L134.833 54.6199C134.794 54.8125 134.774 54.9525 134.774 55.0397C134.774 55.5705 135.16 55.834 135.936 55.834H138.835C139.777 55.834 140.371 55.4287 140.616 54.6199L143.384 44.3997Z" fill="black"/>
<path d="M163.031 58.9729L168.212 40.0194H179.193L174.881 55.8358H182.712L181.845 58.9729H163.031Z" fill="black"/>
<path d="M188.339 58.9726C187.192 58.9726 186.372 58.7327 185.882 58.2492C185.391 57.7676 185.145 57.1223 185.145 56.3117C185.145 55.8773 185.223 55.3629 185.38 54.7649L188.25 44.2267C188.594 43.0217 189.192 42.0202 190.045 41.2205C190.898 40.4207 192.047 40.0209 193.489 40.0209H207.928L207.09 43.1871H200.908C200.447 43.1871 200.077 43.327 199.797 43.6069C199.518 43.8868 199.314 44.2522 199.187 44.7047L198.406 47.5383H204.764L203.896 50.7481H197.538L196.566 54.3905C196.507 54.6032 196.477 54.7849 196.477 54.9394C196.477 55.5174 196.92 55.8064 197.802 55.8064H203.646L202.778 58.9726H188.339Z" fill="black"/>
<path d="M218.607 58.9729L218.461 55.6341H211.131L209.056 58.9729H205.378L216.74 40.0194H229.251L229.943 58.9729H218.607ZM218.34 43.6055L213.248 52.2498H218.399L218.34 43.6055Z" fill="black"/>
<path d="M261.045 54.7659C260.701 56.0673 260.097 57.0942 259.235 57.8448C258.373 58.5955 257.224 58.9717 255.791 58.9717H232.344L237.525 40.0182H260.987C262.066 40.0182 262.864 40.2672 263.378 40.7634C263.893 41.2596 264.152 41.923 264.152 42.7518C264.152 43.2425 264.078 43.7351 263.932 44.2258L261.045 54.7659ZM253.023 44.5894C253.062 44.3876 253.082 44.2367 253.082 44.1404C253.082 43.8423 252.997 43.6024 252.825 43.4243C252.653 43.2462 252.405 43.1571 252.081 43.1571H247.503L244.044 55.8364H248.343C248.932 55.8364 249.376 55.7274 249.675 55.5111C249.975 55.2948 250.197 54.9313 250.345 54.4187L253.023 44.5894Z" fill="black"/>
<path d="M140.831 17.9808H135.489C135.028 17.9808 134.632 18.1062 134.305 18.357C133.975 18.6079 133.813 18.9696 133.813 19.4421C133.813 19.5766 133.837 19.7202 133.887 19.8693C133.935 20.0183 133.99 20.1601 134.049 20.2964L137.671 27.1922C137.748 27.3558 137.828 27.5612 137.906 27.8066C137.983 28.0519 138.024 28.3536 138.024 28.7099C138.024 29.2406 137.898 29.7968 137.649 30.3802C137.399 30.9637 137.053 31.5053 136.61 32.0069C136.168 32.5086 135.641 32.923 135.028 33.2502C134.416 33.5773 133.75 33.7409 133.033 33.7409H117.623L118.461 30.5747H123.553C124.103 30.5747 124.564 30.442 124.938 30.1767C125.31 29.9113 125.496 29.5187 125.496 28.9989C125.496 28.8062 125.469 28.6445 125.415 28.5154C125.361 28.3845 125.286 28.2246 125.187 28.0319L121.655 21.396C121.596 21.2797 121.542 21.1143 121.492 20.898C121.442 20.6817 121.418 20.4236 121.418 20.1237C121.418 19.4676 121.562 18.8205 121.853 18.1789C122.142 17.5373 122.545 16.9666 123.059 16.465C123.574 15.9633 124.177 15.5598 124.869 15.2508C125.561 14.9418 126.318 14.7874 127.143 14.7874H141.699L140.831 17.9808Z" fill="#D90000"/>
<path d="M169.497 23.143C169.232 24.0882 168.855 24.8715 168.364 25.4932C167.874 26.1148 167.322 26.6091 166.708 26.9745C166.096 27.3416 165.448 27.6033 164.765 27.7615C164.082 27.9196 163.427 27.9996 162.8 27.9996H152.35L150.776 33.7394H140.074L145.226 14.7859H166.877C167.26 14.7859 167.681 14.8313 168.142 14.924C168.603 15.0149 169.025 15.1748 169.408 15.402C169.791 15.6292 170.111 15.9437 170.372 16.349C170.631 16.7543 170.763 17.2687 170.763 17.8957C170.763 18.3101 170.679 18.8154 170.513 19.4134L169.497 23.143ZM159.841 19.5279C159.909 19.3262 159.954 19.1517 159.974 19.0081C159.995 18.8627 160.004 18.7282 160.004 18.6028C160.004 18.3338 159.922 18.1466 159.761 18.0466C159.599 17.9448 159.327 17.8939 158.945 17.8939H155.089L153.22 24.7316H156.871C157.391 24.7316 157.805 24.628 158.115 24.4208C158.424 24.2136 158.672 23.7774 158.858 23.1121L159.841 19.5279Z" fill="#D90000"/>
<path d="M174.149 33.7391C173.002 33.7391 172.182 33.4992 171.692 33.0157C171.202 32.534 170.956 31.8888 170.956 31.0782C170.956 30.6438 171.033 30.1294 171.191 29.5314L174.061 18.9932C174.405 17.7881 175.003 16.7867 175.856 15.9869C176.709 15.1872 177.858 14.7874 179.299 14.7874H193.739L192.9 17.9535H186.718C186.257 17.9535 185.887 18.0935 185.608 18.3734C185.328 18.6533 185.125 19.0186 184.997 19.4712L184.216 22.3048H190.574L189.706 25.5146H183.348L182.377 29.157C182.318 29.3697 182.288 29.5514 182.288 29.7059C182.288 30.2839 182.73 30.5729 183.613 30.5729H189.457L188.589 33.7391H174.149Z" fill="#D90000"/>
<path d="M196.178 33.7391C195.031 33.7391 194.211 33.4992 193.72 33.0157C193.23 32.534 192.984 31.8888 192.984 31.0782C192.984 30.6438 193.062 30.1294 193.219 29.5314L196.089 18.9932C196.433 17.7881 197.031 16.7867 197.884 15.9869C198.737 15.1872 199.886 14.7874 201.328 14.7874H215.767L214.929 17.9535H208.746C208.286 17.9535 207.916 18.0935 207.636 18.3734C207.357 18.6533 207.153 19.0186 207.025 19.4712L206.245 22.3048H212.603L211.735 25.5146H205.377L204.405 29.157C204.346 29.3697 204.316 29.5514 204.316 29.7059C204.316 30.2839 204.759 30.5729 205.641 30.5729H211.485L210.617 33.7391H196.178Z" fill="#D90000"/>
<path d="M242.812 29.5322C242.467 30.8336 241.864 31.8605 241.002 32.6112C240.139 33.3619 238.99 33.7381 237.558 33.7381H214.111L219.292 14.7845H242.754C243.833 14.7845 244.631 15.0336 245.145 15.5297C245.659 16.0259 245.919 16.6894 245.919 17.5182C245.919 18.0089 245.844 18.5015 245.698 18.9922L242.812 29.5322ZM234.79 19.3557C234.829 19.154 234.849 19.0031 234.849 18.9068C234.849 18.6087 234.764 18.3688 234.592 18.1907C234.42 18.0125 234.172 17.9235 233.848 17.9235H229.27L225.811 30.6028H230.11C230.698 30.6028 231.142 30.4937 231.442 30.2775C231.742 30.0612 231.964 29.6976 232.112 29.1851L234.79 19.3557Z" fill="#D90000"/>
<path d="M119.239 43.3165L114.955 58.9729H103.724L107.993 43.3165H102.725L103.593 40.0194H125.391L124.524 43.3165H119.239Z" fill="#D90000"/>
<path d="M151.92 53.4076C151.694 54.2364 151.413 54.9907 151.074 55.6704C150.736 56.3502 150.314 56.9336 149.809 57.4189C149.304 57.906 148.706 58.2859 148.014 58.5604C147.322 58.8348 146.494 58.9729 145.534 58.9729H127.533C127.052 58.9729 126.582 58.9293 126.119 58.8421C125.658 58.7548 125.255 58.604 124.912 58.3859C124.57 58.1678 124.292 57.8624 124.082 57.468C123.871 57.0736 123.765 56.5574 123.765 55.9213C123.765 55.1888 123.898 54.3509 124.163 53.4058L126.297 45.6139C126.502 44.9105 126.755 44.2216 127.055 43.5473C127.355 42.873 127.749 42.275 128.24 41.7552C128.73 41.2354 129.339 40.8155 130.064 40.4974C130.789 40.1794 131.674 40.0194 132.714 40.0194H150.686C153.178 40.0194 154.424 41.0754 154.424 43.1856C154.424 43.8599 154.302 44.6706 154.056 45.6139L151.92 53.4076ZM143.384 44.3997C143.423 44.2071 143.443 44.0726 143.443 43.9944C143.443 43.4546 143.051 43.1856 142.266 43.1856H139.381C138.439 43.1856 137.845 43.5909 137.599 44.3997L134.833 54.6199C134.794 54.8125 134.774 54.9525 134.774 55.0397C134.774 55.5705 135.16 55.834 135.936 55.834H138.835C139.777 55.834 140.371 55.4287 140.616 54.6199L143.384 44.3997Z" fill="#D90000"/>
<path d="M163.031 58.9729L168.212 40.0194H179.193L174.881 55.8358H182.712L181.845 58.9729H163.031Z" fill="#D90000"/>
<path d="M188.339 58.9726C187.192 58.9726 186.372 58.7327 185.882 58.2492C185.391 57.7676 185.145 57.1223 185.145 56.3117C185.145 55.8773 185.223 55.3629 185.38 54.7649L188.25 44.2267C188.594 43.0217 189.192 42.0202 190.045 41.2205C190.898 40.4207 192.047 40.0209 193.489 40.0209H207.928L207.09 43.1871H200.908C200.447 43.1871 200.077 43.327 199.797 43.6069C199.518 43.8868 199.314 44.2522 199.187 44.7047L198.406 47.5383H204.764L203.896 50.7481H197.538L196.566 54.3905C196.507 54.6032 196.477 54.7849 196.477 54.9394C196.477 55.5174 196.92 55.8064 197.802 55.8064H203.646L202.778 58.9726H188.339Z" fill="#D90000"/>
<path d="M218.607 58.9729L218.461 55.6341H211.131L209.056 58.9729H205.378L216.74 40.0194H229.251L229.943 58.9729H218.607ZM218.34 43.6055L213.248 52.2498H218.399L218.34 43.6055Z" fill="#D90000"/>
<path d="M261.045 54.7659C260.701 56.0673 260.097 57.0942 259.235 57.8448C258.373 58.5955 257.224 58.9717 255.791 58.9717H232.344L237.525 40.0182H260.987C262.066 40.0182 262.864 40.2672 263.378 40.7634C263.893 41.2596 264.152 41.923 264.152 42.7518C264.152 43.2425 264.078 43.7351 263.932 44.2258L261.045 54.7659ZM253.023 44.5894C253.062 44.3876 253.082 44.2367 253.082 44.1404C253.082 43.8423 252.997 43.6024 252.825 43.4243C252.653 43.2462 252.405 43.1571 252.081 43.1571H247.503L244.044 55.8364H248.343C248.932 55.8364 249.376 55.7274 249.675 55.5111C249.975 55.2948 250.197 54.9313 250.345 54.4187L253.023 44.5894Z" fill="#D90000"/>
<defs>
<linearGradient id="paint0_linear_2_524" x1="3.90878" y1="-13.148" x2="55.25" y2="32.9218" gradientUnits="userSpaceOnUse">
<stop stop-color="#D91F00"/>
<stop offset="0.9333" stop-color="#D90200"/>
<stop offset="1" stop-color="#D90000"/>
</linearGradient>
<linearGradient id="paint1_linear_2_524" x1="59.9423" y1="-12.0859" x2="49.5502" y2="76.6489" gradientUnits="userSpaceOnUse">
<stop stop-color="#D90D00"/>
<stop offset="0.2699" stop-color="#A50900"/>
<stop offset="0.6132" stop-color="#6A0400"/>
<stop offset="0.8665" stop-color="#440100"/>
<stop offset="1" stop-color="#360000"/>
</linearGradient>
</defs>
</svg>
